<svg width="100" height="100" viewBox="0 0 100 100" xmlns="http://www.w3.org/2000/svg">
  <!-- Antenas -->
  <path d="M38 12 Q32 5 28 2" stroke="#1F2937" stroke-width="5" fill="none" stroke-linecap="round"/>
  <path d="M62 12 Q68 5 72 2" stroke="#1F2937" stroke-width="5" fill="none" stroke-linecap="round"/>
  
  <!-- Cabeça circular -->
  <circle cx="50" cy="25" r="18" fill="none" stroke="#1F2937" stroke-width="5"/>
  
  <!-- Asa esquerda -->
  <ellipse cx="25" cy="45" rx="10" ry="18" fill="none" stroke="#1F2937" stroke-width="5" transform="rotate(-25 25 45)"/>
  
  <!-- Asa direita -->
  <ellipse cx="75" cy="45" rx="10" ry="18" fill="none" stroke="#1F2937" stroke-width="5" transform="rotate(25 75 45)"/>
  
  <!-- Corpo principal em formato de gota -->
  <path d="M50 43 C35 43 30 50 30 60 C30 70 35 80 50 85 C65 80 70 70 70 60 C70 50 65 43 50 43 Z" fill="none" stroke="#1F2937" stroke-width="5"/>
  
  <!-- Primeira listra horizontal -->
  <path d="M35 55 C42 53 58 53 65 55" stroke="#1F2937" stroke-width="5" fill="none" stroke-linecap="round"/>
  
  <!-- Segunda listra horizontal -->
  <path d="M37 67 C44 65 56 65 63 67" stroke="#1F2937" stroke-width="5" fill="none" stroke-linecap="round"/>
</svg>