<svg width="64" height="64" viewBox="0 0 64 64" fill="none" xmlns="http://www.w3.org/2000/svg">
  <!-- Background Circle -->
  <circle cx="32" cy="32" r="32" fill="#f1f3f4"/>
  
  <!-- Analytics Icon - Bar Chart -->
  <rect x="20" y="35" width="6" height="13" rx="1" fill="#ff6b9d"/>
  <rect x="29" y="28" width="6" height="20" rx="1" fill="#ff8fab"/>
  <rect x="38" y="22" width="6" height="26" rx="1" fill="#ffa8c5"/>
  
  <!-- Base line -->
  <line x1="16" y1="48" x2="48" y2="48" stroke="#dee2e6" stroke-width="2"/>
  
  <!-- Trend line overlay -->
  <path d="M18 42L27 35L36 28L46 22" stroke="#ff6b9d" stroke-width="2" stroke-linecap="round" fill="none" opacity="0.7"/>
  
  <!-- Data points on trend line -->
  <circle cx="23" cy="38.5" r="2" fill="#ffffff" stroke="#ff6b9d" stroke-width="2"/>
  <circle cx="32" cy="31.5" r="2" fill="#ffffff" stroke="#ff8fab" stroke-width="2"/>
  <circle cx="41" cy="25" r="2" fill="#ffffff" stroke="#ffa8c5" stroke-width="2"/>
  
  <!-- Grid lines for better readability -->
  <line x1="16" y1="44" x2="48" y2="44" stroke="#f8f9fa" stroke-width="1"/>
  <line x1="16" y1="40" x2="48" y2="40" stroke="#f8f9fa" stroke-width="1"/>
  <line x1="16" y1="36" x2="48" y2="36" stroke="#f8f9fa" stroke-width="1"/>
  <line x1="16" y1="32" x2="48" y2="32" stroke="#f8f9fa" stroke-width="1"/>
  <line x1="16" y1="28" x2="48" y2="28" stroke="#f8f9fa" stroke-width="1"/>
  <line x1="16" y1="24" x2="48" y2="24" stroke="#f8f9fa" stroke-width="1"/>
  
  <!-- Small percentage indicator -->
  <text x="46" y="18" font-family="Arial, sans-serif" font-size="8" fill="#ff6b9d" font-weight="bold">+25%</text>
  
  <!-- Arrow indicating upward trend -->
  <path d="M44 20L46 18L48 20" stroke="#ff6b9d" stroke-width="1.5" stroke-linecap="round" stroke-linejoin="round" fill="none"/>
</svg>