<svg width="64" height="64" viewBox="0 0 64 64" fill="none" xmlns="http://www.w3.org/2000/svg">
  <!-- Background Circle -->
  <circle cx="32" cy="32" r="32" fill="#f1f3f4"/>
  
  <!-- Automation Icon - Gears/Cogs -->
  <circle cx="28" cy="28" r="8" fill="none" stroke="#ff6b9d" stroke-width="2"/>
  <circle cx="28" cy="28" r="4" fill="#ff6b9d"/>
  
  <!-- Gear teeth for main gear -->
  <rect x="26" y="18" width="4" height="3" rx="1" fill="#ff6b9d"/>
  <rect x="26" y="37" width="4" height="3" rx="1" fill="#ff6b9d"/>
  <rect x="17" y="26" width="3" height="4" rx="1" fill="#ff6b9d"/>
  <rect x="36" y="26" width="3" height="4" rx="1" fill="#ff6b9d"/>
  
  <!-- Diagonal teeth -->
  <rect x="21.5" y="21.5" width="3" height="3" rx="1" fill="#ff6b9d" transform="rotate(45 23 23)"/>
  <rect x="32.5" y="21.5" width="3" height="3" rx="1" fill="#ff6b9d" transform="rotate(45 34 23)"/>
  <rect x="21.5" y="32.5" width="3" height="3" rx="1" fill="#ff6b9d" transform="rotate(45 23 34)"/>
  <rect x="32.5" y="32.5" width="3" height="3" rx="1" fill="#ff6b9d" transform="rotate(45 34 34)"/>
  
  <!-- Second smaller gear -->
  <circle cx="40" cy="40" r="6" fill="none" stroke="#ff8fab" stroke-width="2"/>
  <circle cx="40" cy="40" r="3" fill="#ff8fab"/>
  
  <!-- Smaller gear teeth -->
  <rect x="38" y="32" width="4" height="2" rx="1" fill="#ff8fab"/>
  <rect x="38" y="46" width="4" height="2" rx="1" fill="#ff8fab"/>
  <rect x="32" y="38" width="2" height="4" rx="1" fill="#ff8fab"/>
  <rect x="46" y="38" width="2" height="4" rx="1" fill="#ff8fab"/>
  
  <!-- Connection line showing interaction -->
  <line x1="34" y1="34" x2="36" y2="36" stroke="#dee2e6" stroke-width="2" stroke-dasharray="2,2"/>
  
  <!-- Motion indicators -->
  <path d="M20 16C22 14 26 14 28 16" stroke="#ffa8c5" stroke-width="1.5" stroke-linecap="round" fill="none"/>
  <path d="M48 32C50 34 50 38 48 40" stroke="#ffa8c5" stroke-width="1.5" stroke-linecap="round" fill="none"/>
  
  <!-- Small automation symbols -->
  <circle cx="18" cy="46" r="2" fill="#ff6b9d" opacity="0.6"/>
  <circle cx="46" cy="18" r="2" fill="#ffa8c5" opacity="0.6"/>
</svg>