<svg width="600" height="400" viewBox="0 0 600 400" fill="none" xmlns="http://www.w3.org/2000/svg">
  <!-- Background -->
  <rect width="600" height="400" rx="16" fill="#ffffff" stroke="#dee2e6" stroke-width="1"/>
  
  <!-- Header -->
  <rect x="0" y="0" width="600" height="60" rx="16" fill="#f8f9fa"/>
  <rect x="0" y="44" width="600" height="16" fill="#f8f9fa"/>
  
  <!-- Header Controls -->
  <circle cx="24" cy="30" r="6" fill="#ff6b9d"/>
  <circle cx="44" cy="30" r="6" fill="#ffa8c5"/>
  <circle cx="64" cy="30" r="6" fill="#ff8fab"/>
  
  <!-- Logo Area -->
  <rect x="100" y="20" width="80" height="20" rx="4" fill="#1a1a1a"/>
  
  <!-- Navigation -->
  <rect x="250" y="22" width="60" height="16" rx="8" fill="#e9ecef"/>
  <rect x="320" y="22" width="60" height="16" rx="8" fill="#e9ecef"/>
  <rect x="390" y="22" width="60" height="16" rx="8" fill="#e9ecef"/>
  
  <!-- User Profile -->
  <circle cx="550" cy="30" r="16" fill="#f1f3f4"/>
  <circle cx="550" cy="30" r="8" fill="#6b6b6b"/>
  
  <!-- Sidebar -->
  <rect x="0" y="60" width="120" height="340" fill="#f8f9fa" stroke="#dee2e6" stroke-width="1"/>
  
  <!-- Sidebar Menu Items -->
  <rect x="16" y="80" width="88" height="32" rx="8" fill="#ff6b9d" opacity="0.1"/>
  <rect x="24" y="88" width="72" height="16" rx="4" fill="#ff6b9d"/>
  
  <rect x="16" y="120" width="88" height="32" rx="8" fill="transparent"/>
  <rect x="24" y="128" width="72" height="16" rx="4" fill="#6b6b6b"/>
  
  <rect x="16" y="160" width="88" height="32" rx="8" fill="transparent"/>
  <rect x="24" y="168" width="72" height="16" rx="4" fill="#6b6b6b"/>
  
  <rect x="16" y="200" width="88" height="32" rx="8" fill="transparent"/>
  <rect x="24" y="208" width="72" height="16" rx="4" fill="#6b6b6b"/>
  
  <rect x="16" y="240" width="88" height="32" rx="8" fill="transparent"/>
  <rect x="24" y="248" width="72" height="16" rx="4" fill="#6b6b6b"/>
  
  <!-- Main Content Area -->
  <rect x="120" y="60" width="480" height="340" fill="#ffffff"/>
  
  <!-- Page Title -->
  <rect x="140" y="80" width="200" height="24" rx="4" fill="#1a1a1a"/>
  <rect x="140" y="112" width="120" height="16" rx="4" fill="#4a4a4a"/>
  
  <!-- Action Buttons -->
  <rect x="460" y="80" width="80" height="32" rx="8" fill="#1a1a1a"/>
  <rect x="550" y="80" width="32" height="32" rx="8" fill="#e9ecef"/>
  
  <!-- Stats Cards -->
  <rect x="140" y="140" width="100" height="80" rx="12" fill="#ffffff" stroke="#dee2e6" stroke-width="1"/>
  <rect x="150" y="150" width="80" height="12" rx="4" fill="#4a4a4a"/>
  <rect x="150" y="170" width="60" height="20" rx="4" fill="#ff6b9d"/>
  <rect x="150" y="195" width="40" height="12" rx="4" fill="#6b6b6b"/>
  
  <rect x="250" y="140" width="100" height="80" rx="12" fill="#ffffff" stroke="#dee2e6" stroke-width="1"/>
  <rect x="260" y="150" width="80" height="12" rx="4" fill="#4a4a4a"/>
  <rect x="260" y="170" width="60" height="20" rx="4" fill="#ff8fab"/>
  <rect x="260" y="195" width="40" height="12" rx="4" fill="#6b6b6b"/>
  
  <rect x="360" y="140" width="100" height="80" rx="12" fill="#ffffff" stroke="#dee2e6" stroke-width="1"/>
  <rect x="370" y="150" width="80" height="12" rx="4" fill="#4a4a4a"/>
  <rect x="370" y="170" width="60" height="20" rx="4" fill="#ffa8c5"/>
  <rect x="370" y="195" width="40" height="12" rx="4" fill="#6b6b6b"/>
  
  <rect x="470" y="140" width="100" height="80" rx="12" fill="#ffffff" stroke="#dee2e6" stroke-width="1"/>
  <rect x="480" y="150" width="80" height="12" rx="4" fill="#4a4a4a"/>
  <rect x="480" y="170" width="60" height="20" rx="4" fill="#ff6b9d"/>
  <rect x="480" y="195" width="40" height="12" rx="4" fill="#6b6b6b"/>
  
  <!-- Chart Area -->
  <rect x="140" y="240" width="320" height="140" rx="12" fill="#ffffff" stroke="#dee2e6" stroke-width="1"/>
  <rect x="150" y="250" width="100" height="12" rx="4" fill="#1a1a1a"/>
  
  <!-- Chart Bars -->
  <rect x="160" y="320" width="20" height="40" rx="4" fill="#ff6b9d"/>
  <rect x="190" y="300" width="20" height="60" rx="4" fill="#ff8fab"/>
  <rect x="220" y="280" width="20" height="80" rx="4" fill="#ffa8c5"/>
  <rect x="250" y="290" width="20" height="70" rx="4" fill="#ff6b9d"/>
  <rect x="280" y="310" width="20" height="50" rx="4" fill="#ff8fab"/>
  <rect x="310" y="270" width="20" height="90" rx="4" fill="#ffa8c5"/>
  <rect x="340" y="295" width="20" height="65" rx="4" fill="#ff6b9d"/>
  <rect x="370" y="285" width="20" height="75" rx="4" fill="#ff8fab"/>
  <rect x="400" y="305" width="20" height="55" rx="4" fill="#ffa8c5"/>
  <rect x="430" y="275" width="20" height="85" rx="4" fill="#ff6b9d"/>
  
  <!-- Recent Activity -->
  <rect x="470" y="240" width="100" height="140" rx="12" fill="#ffffff" stroke="#dee2e6" stroke-width="1"/>
  <rect x="480" y="250" width="80" height="12" rx="4" fill="#1a1a1a"/>
  
  <!-- Activity Items -->
  <circle cx="490" cy="275" r="4" fill="#ff6b9d"/>
  <rect x="500" y="270" width="60" height="8" rx="4" fill="#4a4a4a"/>
  <rect x="500" y="280" width="40" height="6" rx="3" fill="#6b6b6b"/>
  
  <circle cx="490" cy="300" r="4" fill="#ff8fab"/>
  <rect x="500" y="295" width="60" height="8" rx="4" fill="#4a4a4a"/>
  <rect x="500" y="305" width="40" height="6" rx="3" fill="#6b6b6b"/>
  
  <circle cx="490" cy="325" r="4" fill="#ffa8c5"/>
  <rect x="500" y="320" width="60" height="8" rx="4" fill="#4a4a4a"/>
  <rect x="500" y="330" width="40" height="6" rx="3" fill="#6b6b6b"/>
  
  <circle cx="490" cy="350" r="4" fill="#ff6b9d"/>
  <rect x="500" y="345" width="60" height="8" rx="4" fill="#4a4a4a"/>
  <rect x="500" y="355" width="40" height="6" rx="3" fill="#6b6b6b"/>
  
  <!-- Subtle Shadow -->
  <defs>
    <filter id="shadow" x="-20%" y="-20%" width="140%" height="140%">
      <feDropShadow dx="0" dy="4" stdDeviation="8" flood-color="#000000" flood-opacity="0.1"/>
    </filter>
  </defs>
  <rect width="600" height="400" rx="16" fill="none" filter="url(#shadow)"/>
</svg>