<svg width="64" height="64" viewBox="0 0 64 64" fill="none" xmlns="http://www.w3.org/2000/svg">
  <!-- Background Circle -->
  <circle cx="32" cy="32" r="32" fill="#f1f3f4"/>
  
  <!-- Integration Icon - Connected Nodes -->
  <circle cx="24" cy="24" r="6" fill="#ff6b9d"/>
  <circle cx="40" cy="24" r="6" fill="#ff8fab"/>
  <circle cx="32" cy="40" r="6" fill="#ffa8c5"/>
  <circle cx="20" cy="44" r="4" fill="#ff6b9d" opacity="0.7"/>
  <circle cx="44" cy="44" r="4" fill="#ff8fab" opacity="0.7"/>
  
  <!-- Connection lines -->
  <line x1="24" y1="24" x2="40" y2="24" stroke="#dee2e6" stroke-width="3"/>
  <line x1="24" y1="24" x2="32" y2="40" stroke="#dee2e6" stroke-width="3"/>
  <line x1="40" y1="24" x2="32" y2="40" stroke="#dee2e6" stroke-width="3"/>
  <line x1="32" y1="40" x2="20" y2="44" stroke="#dee2e6" stroke-width="2"/>
  <line x1="32" y1="40" x2="44" y2="44" stroke="#dee2e6" stroke-width="2"/>
  
  <!-- Data flow indicators -->
  <circle cx="28" cy="24" r="1.5" fill="#ffffff"/>
  <circle cx="36" cy="24" r="1.5" fill="#ffffff"/>
  <circle cx="28" cy="32" r="1.5" fill="#ffffff"/>
  <circle cx="36" cy="32" r="1.5" fill="#ffffff"/>
  <circle cx="32" cy="36" r="1.5" fill="#ffffff"/>
  
  <!-- Small connecting dots showing data flow -->
  <circle cx="30" cy="22" r="1" fill="#ff6b9d" opacity="0.6"/>
  <circle cx="34" cy="26" r="1" fill="#ff8fab" opacity="0.6"/>
  <circle cx="26" cy="34" r="1" fill="#ffa8c5" opacity="0.6"/>
  <circle cx="38" cy="34" r="1" fill="#ff6b9d" opacity="0.6"/>
  
  <!-- Integration symbols in nodes -->
  <path d="M22 22L26 26M22 26L26 22" stroke="#ffffff" stroke-width="1.5" stroke-linecap="round"/>
  <path d="M38 22L42 26M38 26L42 22" stroke="#ffffff" stroke-width="1.5" stroke-linecap="round"/>
  <circle cx="32" cy="40" r="2" fill="#ffffff"/>
</svg>