<svg width="64" height="64" viewBox="0 0 64 64" fill="none" xmlns="http://www.w3.org/2000/svg">
  <!-- Background Circle -->
  <circle cx="32" cy="32" r="32" fill="#f1f3f4"/>
  
  <!-- Organization Icon - Organized Grid/Folders -->
  <rect x="18" y="20" width="12" height="10" rx="2" fill="#ff8fab" stroke="#ff6b9d" stroke-width="1"/>
  <rect x="34" y="20" width="12" height="10" rx="2" fill="#ffa8c5" stroke="#ff8fab" stroke-width="1"/>
  
  <rect x="18" y="34" width="12" height="10" rx="2" fill="#ffa8c5" stroke="#ff8fab" stroke-width="1"/>
  <rect x="34" y="34" width="12" height="10" rx="2" fill="#ff6b9d" stroke="#ff5a8a" stroke-width="1"/>
  
  <!-- Connecting lines showing organization -->
  <line x1="24" y1="30" x2="24" y2="34" stroke="#dee2e6" stroke-width="2"/>
  <line x1="40" y1="30" x2="40" y2="34" stroke="#dee2e6" stroke-width="2"/>
  <line x1="30" y1="25" x2="34" y2="25" stroke="#dee2e6" stroke-width="2"/>
  <line x1="30" y1="39" x2="34" y2="39" stroke="#dee2e6" stroke-width="2"/>
  
  <!-- Small organizing elements -->
  <circle cx="21" cy="23" r="1" fill="#ffffff"/>
  <circle cx="37" cy="23" r="1" fill="#ffffff"/>
  <circle cx="21" cy="37" r="1" fill="#ffffff"/>
  <circle cx="37" cy="37" r="1" fill="#ffffff"/>
  
  <!-- Checkmarks indicating completion/organization -->
  <path d="M19.5 26L21 27.5L24.5 24" stroke="#ffffff" stroke-width="1.5" stroke-linecap="round" stroke-linejoin="round" fill="none"/>
  <path d="M35.5 26L37 27.5L40.5 24" stroke="#ffffff" stroke-width="1.5" stroke-linecap="round" stroke-linejoin="round" fill="none"/>
</svg>