<svg width="64" height="64" viewBox="0 0 64 64" fill="none" xmlns="http://www.w3.org/2000/svg">
  <!-- Background Circle -->
  <circle cx="32" cy="32" r="32" fill="#f1f3f4"/>
  
  <!-- Productivity Icon - Upward Trending Chart -->
  <path d="M16 40L24 32L32 36L48 20" stroke="#ff6b9d" stroke-width="3" stroke-linecap="round" stroke-linejoin="round" fill="none"/>
  
  <!-- Data Points -->
  <circle cx="16" cy="40" r="3" fill="#ff6b9d"/>
  <circle cx="24" cy="32" r="3" fill="#ff8fab"/>
  <circle cx="32" cy="36" r="3" fill="#ffa8c5"/>
  <circle cx="48" cy="20" r="3" fill="#ff6b9d"/>
  
  <!-- Arrow indicating growth -->
  <path d="M42 20L48 20L48 26" stroke="#ff6b9d" stroke-width="2.5" stroke-linecap="round" stroke-linejoin="round" fill="none"/>
  
  <!-- Subtle grid lines -->
  <line x1="16" y1="48" x2="48" y2="48" stroke="#e9ecef" stroke-width="1"/>
  <line x1="16" y1="44" x2="48" y2="44" stroke="#e9ecef" stroke-width="0.5"/>
  <line x1="16" y1="40" x2="48" y2="40" stroke="#e9ecef" stroke-width="0.5"/>
  <line x1="16" y1="36" x2="48" y2="36" stroke="#e9ecef" stroke-width="0.5"/>
  <line x1="16" y1="32" x2="48" y2="32" stroke="#e9ecef" stroke-width="0.5"/>
  <line x1="16" y1="28" x2="48" y2="28" stroke="#e9ecef" stroke-width="0.5"/>
  <line x1="16" y1="24" x2="48" y2="24" stroke="#e9ecef" stroke-width="0.5"/>
  <line x1="16" y1="20" x2="48" y2="20" stroke="#e9ecef" stroke-width="0.5"/>
</svg>